<svg width="14.000000" height="20.000000" viewBox="0 0 14 20" fill="none" xmlns="http://www.w3.org/2000/svg" xmlns:xlink="http://www.w3.org/1999/xlink">
	<desc>
			Created with Pixso.
	</desc>
	<defs/>
	<path id="Union" d="M11.75 0L1.75 0C0.64 0 -0.25 0.89 -0.25 2L-0.25 18C-0.25 19.1 0.64 20 1.75 20L11.75 20C12.85 20 13.75 19.1 13.75 18L13.75 2C13.75 0.89 12.85 0 11.75 0ZM1.75 18L1.75 2L11.75 2L11.75 18L1.75 18ZM6.75 17C7.3 17 7.75 16.55 7.75 16C7.75 15.44 7.3 15 6.75 15C6.19 15 5.75 15.44 5.75 16C5.75 16.55 6.19 17 6.75 17Z" fill="#BC88FF" fill-opacity="1.000000" fill-rule="evenodd"/>
</svg>
