<svg width="19.000000" height="18.000000" viewBox="0 0 19 18" fill="none" xmlns="http://www.w3.org/2000/svg" xmlns:xlink="http://www.w3.org/1999/xlink">
	<desc>
			Created with Pixso.
	</desc>
	<defs/>
	<path id="Vector" d="M9 0.59C7.91 -0.41 6.48 -0.97 5 -0.97C4.22 -0.97 3.44 -0.81 2.72 -0.51C1.99 -0.21 1.34 0.23 0.79 0.79C-1.57 3.15 -1.57 6.85 0.79 9.2L8.12 16.53C8.29 16.83 8.62 17.03 9 17.03C9.15 17.02 9.3 16.99 9.44 16.92C9.58 16.84 9.7 16.74 9.79 16.62L17.2 9.2C19.56 6.85 19.56 3.15 17.2 0.79C16.65 0.23 15.99 -0.21 15.27 -0.51C14.55 -0.81 13.77 -0.97 12.99 -0.97C11.51 -0.97 10.08 -0.41 9 0.59ZM15.79 2.2C17.35 3.77 17.35 6.22 15.79 7.79L9 14.58L2.2 7.79C0.64 6.22 0.64 3.77 2.2 2.2C2.96 1.45 3.95 1.03 5 1.03C6.04 1.03 7.03 1.45 7.79 2.2L8.29 2.7C8.38 2.79 8.49 2.87 8.61 2.92C8.73 2.97 8.86 3 9 3C9.13 3 9.26 2.97 9.38 2.92C9.5 2.87 9.61 2.79 9.7 2.7L10.2 2.2C11.71 0.69 14.28 0.7 15.79 2.2Z" fill="#BABABA" fill-opacity="1.000000" fill-rule="evenodd"/>
</svg>

