<svg width="19.000000" height="17.000000" viewBox="0 0 19 17" fill="none" xmlns="http://www.w3.org/2000/svg" xmlns:xlink="http://www.w3.org/1999/xlink">
	<desc>
			Created with Pixso.
	</desc>
	<defs/>
	<path id="Vector" d="M17.25 -0.25L0.75 -0.25C0.35 -0.25 -0.03 -0.1 -0.32 0.18C-0.6 0.47 -0.75 0.85 -0.75 1.25L-0.75 14.75C-0.75 15.14 -0.6 15.52 -0.32 15.81C-0.03 16.09 0.35 16.25 0.75 16.25L17.25 16.25C17.64 16.25 18.02 16.09 18.31 15.81C18.59 15.52 18.75 15.14 18.75 14.75L18.75 1.25C18.75 0.85 18.59 0.47 18.31 0.18C18.02 -0.1 17.64 -0.25 17.25 -0.25ZM0.75 4.25L8.25 4.25L8.25 11.75L0.75 11.75L0.75 4.25ZM9.75 2.75L9.75 1.25L12.75 1.25L12.75 2.75L9.75 2.75ZM8.25 2.75L5.25 2.75L5.25 1.25L8.25 1.25L8.25 2.75ZM8.25 13.25L8.25 14.75L5.25 14.75L5.25 13.25L8.25 13.25ZM9.75 13.25L12.75 13.25L12.75 14.75L9.75 14.75L9.75 13.25ZM9.75 11.75L9.75 4.25L17.25 4.25L17.25 11.75L9.75 11.75ZM17.25 2.75L14.25 2.75L14.25 1.25L17.25 1.25L17.25 2.75ZM3.75 1.25L3.75 2.75L0.75 2.75L0.75 1.25L3.75 1.25ZM0.75 13.25L3.75 13.25L3.75 14.75L0.75 14.75L0.75 13.25ZM17.25 14.75L14.25 14.75L14.25 13.25L17.25 13.25L17.25 14.75Z" fill="#BC88FF" fill-opacity="1.000000" fill-rule="nonzero"/>
</svg>
