<svg width="18.000000" height="20.000000" viewBox="0 0 18 20" fill="none" xmlns="http://www.w3.org/2000/svg" xmlns:xlink="http://www.w3.org/1999/xlink">
	<desc>
			Created with Pixso.
	</desc>
	<defs/>
	<path id="Vector" d="M16 11.58L16 8C16 4.78 13.81 2.07 10.85 1.25C10.56 0.51 9.84 0 9 0C8.15 0 7.43 0.51 7.14 1.25C4.18 2.07 2 4.78 2 8L2 11.58L0.29 13.29C0.19 13.38 0.12 13.49 0.07 13.61C0.02 13.73 -0.01 13.86 0 14L0 16C0 16.26 0.1 16.51 0.29 16.7C0.48 16.89 0.73 17 1 17L17 17C17.26 17 17.51 16.89 17.7 16.7C17.89 16.51 18 16.26 18 16L18 14C18 13.86 17.97 13.73 17.92 13.61C17.87 13.49 17.79 13.38 17.7 13.29L16 11.58ZM16 15L2 15L2 14.41L3.7 12.7C3.8 12.61 3.87 12.5 3.92 12.38C3.97 12.26 4 12.13 4 12L4 8C4 5.24 6.24 3 9 3C11.75 3 14 5.24 14 8L14 12C14 12.26 14.1 12.52 14.29 12.7L16 14.41L16 15ZM9 20C9.61 20 10.22 19.8 10.72 19.45C11.23 19.09 11.61 18.58 11.81 18L6.18 18C6.38 18.58 6.76 19.09 7.27 19.45C7.77 19.8 8.38 20 9 20Z" fill="#BABABA" fill-opacity="1.000000" fill-rule="nonzero"/>
</svg>
