<svg width="18.000000" height="19.000000" viewBox="0 0 18 19" fill="none" xmlns="http://www.w3.org/2000/svg" xmlns:xlink="http://www.w3.org/1999/xlink">
	<desc>
			Created with Pixso.
	</desc>
	<defs/>
	<path id="Vector" d="M9 0C8.01 0 7.04 0.29 6.22 0.84C5.39 1.39 4.75 2.17 4.38 3.08C4 4 3.9 5 4.09 5.97C4.28 6.94 4.76 7.83 5.46 8.53C6.16 9.23 7.05 9.71 8.02 9.9C8.99 10.09 9.99 9.99 10.91 9.61C11.82 9.24 12.6 8.6 13.15 7.77C13.7 6.95 14 5.98 14 5C14 3.67 13.47 2.4 12.53 1.46C11.59 0.52 10.32 0 9 0ZM9 8C8.4 8 7.82 7.82 7.33 7.49C6.83 7.16 6.45 6.69 6.22 6.14C6 5.59 5.94 4.99 6.05 4.41C6.17 3.83 6.45 3.29 6.87 2.87C7.29 2.45 7.83 2.17 8.41 2.05C8.99 1.94 9.59 2 10.14 2.22C10.69 2.45 11.16 2.83 11.49 3.33C11.82 3.82 12 4.4 12 5C12 5.79 11.68 6.55 11.12 7.12C10.55 7.68 9.79 8 9 8ZM18 19L18 18C18 16.14 17.26 14.36 15.94 13.05C14.63 11.73 12.85 11 11 11L7 11C5.14 11 3.36 11.73 2.05 13.05C0.73 14.36 0 16.14 0 18L0 19L2 19L2 18C2 16.67 2.52 15.4 3.46 14.46C4.4 13.52 5.67 13 7 13L11 13C12.32 13 13.59 13.52 14.53 14.46C15.47 15.4 16 16.67 16 18L16 19L18 19Z" fill="#BABABA" fill-opacity="1.000000" fill-rule="nonzero"/>
</svg>
