<svg width="25.000000" height="25.000000" viewBox="0 0 25 25" fill="none" xmlns="http://www.w3.org/2000/svg" xmlns:xlink="http://www.w3.org/1999/xlink">
	<desc>
			Created with Pixso.
	</desc>
	<defs/>
	<path id="Vector" d="M10.19 20.86C12.56 20.86 14.86 20.06 16.72 18.61L22.58 24.47L24.47 22.58L18.61 16.72C20.06 14.86 20.86 12.56 20.86 10.19C20.86 4.31 16.07 -0.48 10.19 -0.48C4.31 -0.48 -0.48 4.31 -0.48 10.19C-0.48 16.07 4.31 20.86 10.19 20.86ZM10.19 2.19C14.6 2.19 18.19 5.78 18.19 10.19C18.19 14.6 14.6 18.19 10.19 18.19C5.78 18.19 2.19 14.6 2.19 10.19C2.19 5.78 5.78 2.19 10.19 2.19Z" fill="#BABABA" fill-opacity="1.000000" fill-rule="nonzero"/>
</svg>
