<svg width="21.000000" height="17.000000" viewBox="0 0 21 17" fill="none" xmlns="http://www.w3.org/2000/svg" xmlns:xlink="http://www.w3.org/1999/xlink">
	<desc>
			Created with Pixso.
	</desc>
	<defs/>
	<path id="Vector" d="M20.28 6.97L12.78 -0.53C12.67 -0.64 12.54 -0.71 12.39 -0.74C12.25 -0.77 12.1 -0.75 11.96 -0.7C11.82 -0.64 11.7 -0.54 11.62 -0.42C11.54 -0.3 11.5 -0.15 11.5 0L11.5 3.78C9.06 3.99 6.38 5.18 4.17 7.05C1.51 9.31 -0.15 12.22 -0.5 15.24C-0.52 15.48 -0.48 15.71 -0.36 15.92C-0.25 16.13 -0.07 16.29 0.15 16.39C0.36 16.49 0.6 16.52 0.83 16.48C1.07 16.43 1.28 16.31 1.44 16.14C2.47 15.04 6.14 11.57 11.5 11.26L11.5 15C11.5 15.14 11.54 15.29 11.62 15.41C11.7 15.54 11.82 15.63 11.96 15.69C12.1 15.74 12.25 15.76 12.39 15.73C12.54 15.7 12.67 15.63 12.78 15.52L20.28 8.02C20.42 7.88 20.49 7.69 20.49 7.5C20.49 7.3 20.42 7.11 20.28 6.97ZM13 13.18L13 10.5C13 10.3 12.92 10.11 12.78 9.96C12.63 9.82 12.44 9.75 12.25 9.75C9.61 9.75 7.05 10.43 4.62 11.79C3.39 12.48 2.24 13.32 1.2 14.28C1.74 12.04 3.11 9.91 5.14 8.19C7.31 6.35 9.97 5.25 12.25 5.25C12.44 5.25 12.63 5.17 12.78 5.03C12.92 4.88 13 4.69 13 4.5L13 1.81L18.68 7.5L13 13.18Z" fill="#BABABA" fill-opacity="1.000000" fill-rule="nonzero"/>
</svg>
