<svg width="20.000000" height="21.000000" viewBox="0 0 20 21" fill="none" xmlns="http://www.w3.org/2000/svg" xmlns:xlink="http://www.w3.org/1999/xlink">
	<desc>
			Created with Pixso.
	</desc>
	<defs/>
	<path id="Vector" d="M4.51 12.32L3.02 18.77C2.97 18.97 2.99 19.17 3.06 19.36C3.13 19.54 3.26 19.71 3.42 19.82C3.59 19.93 3.79 20 3.99 20C4.19 20 4.38 19.94 4.55 19.83L10 16.2L15.44 19.83C15.61 19.94 15.81 20 16.02 19.99C16.22 19.99 16.42 19.92 16.58 19.8C16.75 19.68 16.87 19.51 16.94 19.32C17.01 19.13 17.01 18.92 16.96 18.72L15.13 12.32L19.66 8.24C19.81 8.11 19.91 7.94 19.96 7.75C20.01 7.56 20 7.36 19.94 7.17C19.88 6.99 19.76 6.83 19.61 6.71C19.45 6.59 19.27 6.51 19.07 6.5L13.37 6.05L10.91 0.58C10.83 0.41 10.7 0.26 10.54 0.15C10.38 0.05 10.19 -0.01 10 -0.01C9.8 -0.01 9.61 0.05 9.45 0.15C9.29 0.26 9.16 0.41 9.08 0.58L6.62 6.05L0.92 6.5C0.72 6.51 0.54 6.58 0.39 6.7C0.24 6.82 0.12 6.97 0.05 7.16C-0.01 7.34 -0.02 7.53 0.02 7.72C0.06 7.91 0.16 8.08 0.3 8.21L4.51 12.32ZM7.36 7.99C7.54 7.98 7.71 7.92 7.86 7.81C8.01 7.71 8.12 7.57 8.2 7.41L10 3.43L11.79 7.41C11.87 7.57 11.98 7.71 12.13 7.81C12.28 7.92 12.45 7.98 12.63 7.99L16.6 8.31L13.33 11.25C13.04 11.51 12.93 11.9 13.03 12.27L14.29 16.65L10.55 14.16C10.39 14.05 10.19 13.99 10 13.99C9.8 13.99 9.61 14.05 9.44 14.16L5.54 16.77L6.59 12.22C6.63 12.05 6.62 11.88 6.57 11.71C6.52 11.55 6.43 11.4 6.31 11.28L3.27 8.32L7.36 7.99Z" fill="#BC88FF" fill-opacity="1.000000" fill-rule="nonzero"/>
</svg>
