<svg width="44.000000" height="44.000000" viewBox="0 0 44 44" fill="none" xmlns="http://www.w3.org/2000/svg" xmlns:xlink="http://www.w3.org/1999/xlink">
	<desc>
			Created with Pixso.
	</desc>
	<defs/>
	<path id="Vector" d="M29.4 40.48C31.81 39.47 33.99 38 35.83 36.14C37.68 34.28 39.14 32.08 40.14 29.65C41.14 27.22 41.65 24.62 41.64 22C41.65 19.37 41.14 16.77 40.14 14.34C39.14 11.91 37.68 9.71 35.83 7.85C33.99 5.99 31.81 4.52 29.4 3.51C26.99 2.51 24.41 1.99 21.8 2C19.2 1.99 16.62 2.51 14.21 3.51C11.8 4.52 9.62 5.99 7.78 7.85C5.93 9.71 4.47 11.91 3.47 14.34C2.47 16.77 1.96 19.37 1.96 22C1.96 24.62 2.47 27.22 3.47 29.65C4.47 32.08 5.93 34.28 7.78 36.14C9.62 38 11.8 39.47 14.21 40.48C16.62 41.48 19.2 42 21.8 42C24.41 42 26.99 41.48 29.4 40.48Z" stroke="#4B4B4B" stroke-opacity="1.000000" stroke-width="4.000000" stroke-linejoin="round"/>
	<path id="Vector" d="M21.8 35C22.46 35 23.09 34.73 23.56 34.26C24.02 33.79 24.28 33.16 24.28 32.5C24.28 31.83 24.02 31.2 23.56 30.73C23.09 30.26 22.46 30 21.8 30C21.15 30 20.51 30.26 20.05 30.73C19.58 31.2 19.32 31.83 19.32 32.5C19.32 33.16 19.58 33.79 20.05 34.26C20.51 34.73 21.15 35 21.8 35Z" fill="#4B4B4B" fill-opacity="1.000000" fill-rule="evenodd"/>
	<path id="Vector" d="M21.8 10L21.8 26" stroke="#4B4B4B" stroke-opacity="1.000000" stroke-width="4.000000" stroke-linejoin="round" stroke-linecap="round"/>
</svg>
